<svg width="48" height="48" viewBox="0 0 128 128" xmlns="http://www.w3.org/2000/svg"><g transform="translate(39 34)"><rect width="50" height="50" rx="4" fill="#fff" stroke="#3498db" stroke-width="2.5"/><path d="m5 30 10-10 8 8 12-15 5 5v12z" fill="#3498db" opacity=".9"/><path d="m5 33 10 3 8-2.4 12 4.5 5-1.5V33z" fill="#3498db" opacity=".3"/></g><g transform="translate(75 75)" stroke="#3498db"><circle r="16" fill="#fff" stroke-width="2"/><path d="m11 11 12 12" stroke-width="5" stroke-linecap="round"/></g><g transform="translate(75 75)"><defs><clipPath id="a"><circle r="14"/></clipPath></defs><g fill="#3498db" clip-path="url(#a)"><path d="m-38-1 18-18L-5.6-4.6l21.6-27 9 9V-1z" opacity=".9"/><path d="m-38 1.7 18 5.4 14.4-4.32 21.6 8.1 9-2.7V1.7z" opacity=".3"/></g><circle r="14" fill="none" stroke="#3498db" stroke-width=".8" stroke-dasharray="3 2"/></g></svg>